<?xml version="1.0" encoding="UTF-8"?>
<svg xmlns="http://www.w3.org/2000/svg" xmlns:xlink="http://www.w3.org/1999/xlink" width="1271pt" height="787pt" viewBox="0 0 1271 787" version="1.1">
<g id="surface1">
<rect x="0" y="0" width="1271" height="787" style="fill:rgb(100%,100%,100%);fill-opacity:1;stroke:none;"/>
<path style=" stroke:none;fill-rule:nonzero;fill:rgb(36.863708%,36.473083%,36.473083%);fill-opacity:1;" d="M 1063.441406 68.398438 C 1070.371094 61.230469 1084.140625 61.761719 1089.621094 70.421875 C 1091.289063 72.949219 1092.480469 75.890625 1092.558594 78.949219 C 1092.941406 87.320313 1091.46875 95.808594 1093.378906 104.070313 C 1096.230469 117.839844 1104.429688 129.910156 1114.480469 139.5 C 1128.300781 152.851563 1144.96875 162.671875 1161.121094 172.878906 C 1170.578125 178.910156 1180.191406 184.910156 1188.371094 192.679688 C 1193.851563 197.851563 1197.390625 204.628906 1200.5 211.398438 C 1206.121094 223.738281 1209.089844 237.421875 1208.261719 251 C 1206.878906 269.128906 1200.03125 286.730469 1189.511719 301.488281 C 1175.679688 318.898438 1160.070313 334.789063 1145.980469 351.96875 C 1142.789063 355.570313 1140.921875 360.238281 1140.808594 365.050781 C 1141.058594 371.761719 1143.230469 378.179688 1145.511719 384.429688 C 1149.328125 394.101563 1149.089844 404.71875 1148.371094 414.910156 C 1147.121094 426.988281 1144.21875 439 1139.078125 450.03125 C 1135.671875 457.679688 1129.949219 463.988281 1126.351563 471.539063 C 1116.359375 491.179688 1109.609375 512.460938 1106 534.179688 C 1102.46875 558.660156 1100.101563 583.300781 1098.628906 607.988281 C 1098.289063 617.980469 1098.238281 627.980469 1098.53125 637.980469 C 1098.609375 646.730469 1102.800781 655.28125 1100.609375 664.039063 C 1099.359375 671.289063 1094.53125 677.671875 1088.109375 681.179688 C 1079.320313 686.140625 1068.640625 686.289063 1058.949219 684.460938 C 1052.941406 683.121094 1046.011719 680.328125 1043.871094 674 C 1042.929688 670.25 1043.261719 665.890625 1045.851563 662.851563 C 1051.050781 656.589844 1061.199219 657.871094 1065.878906 650.949219 C 1069.730469 642.921875 1069.621094 633.699219 1069.851563 624.988281 C 1070.519531 596.398438 1064.898438 568.230469 1061.390625 539.988281 C 1061.28125 536.839844 1059.949219 533.390625 1061.570313 530.449219 C 1072.078125 513.140625 1082.539063 495.761719 1091.75 477.71875 C 1097.828125 464.308594 1104.121094 450.628906 1105.859375 435.859375 C 1106.941406 427.71875 1105.941406 419.21875 1102.308594 411.808594 C 1095.339844 397.171875 1093.46875 380.488281 1095.730469 364.539063 C 1074.851563 369.53125 1053.230469 365.261719 1032.828125 360.058594 C 1019.339844 356.660156 1006.21875 351.980469 992.929688 347.929688 C 976.878906 344.359375 960.78125 349.78125 944.988281 352.261719 C 943.171875 352.480469 941.339844 352.390625 939.550781 352.371094 C 939.070313 346.421875 942.671875 341.339844 945.199219 336.261719 C 948.210938 330.300781 952.480469 325.011719 954.890625 318.75 C 950.21875 316.140625 944.878906 317.96875 940.039063 318.980469 C 935.359375 320.03125 930.519531 319.820313 925.78125 319.558594 C 937.628906 306.75 952.808594 297.320313 969.140625 291.339844 C 983.789063 286 999.371094 282.789063 1015.011719 283.320313 C 1027.210938 282.929688 1038.730469 287.671875 1049.890625 292.03125 C 1070 300.28125 1089.390625 310.191406 1109.460938 318.539063 C 1117.03125 321.769531 1125.878906 321.621094 1133.429688 318.390625 C 1141.398438 315.019531 1148.140625 309.300781 1153.898438 302.941406 C 1160.109375 295.890625 1165.570313 288.109375 1169.71875 279.671875 C 1175.140625 268.03125 1177.921875 254.738281 1175.339844 242 C 1173.03125 229.710938 1165.679688 218.800781 1156.191406 210.851563 C 1148.5 204.199219 1139.429688 199.511719 1130.960938 193.988281 C 1112.851563 182.460938 1094.378906 171.070313 1078.859375 156.101563 C 1069.050781 146.738281 1060.71875 135.410156 1056.800781 122.300781 C 1053.621094 112.25 1053.671875 101.53125 1054.558594 91.128906 C 1055.519531 83.039063 1057.378906 74.300781 1063.441406 68.398438 "/>
<path style=" stroke:none;fill-rule:nonzero;fill:rgb(36.863708%,36.473083%,36.473083%);fill-opacity:1;" d="M 754.28125 293.21875 C 773.128906 288.421875 792.371094 283.820313 811.96875 284.378906 C 819.351563 284.488281 826.75 285.828125 833.601563 288.648438 C 842.109375 292.019531 850.769531 295.390625 858.308594 300.699219 C 863.449219 304.398438 868.171875 309.488281 869.328125 315.929688 C 870.46875 323.480469 866.339844 331.179688 859.800781 334.929688 C 845.828125 343.730469 829.871094 348.589844 814.300781 353.679688 C 814.390625 350.148438 814.761719 345.839844 811.550781 343.488281 C 803.121094 337.519531 792.71875 335.121094 782.589844 334.078125 C 794.351563 330.160156 806.210938 326.539063 818.191406 323.351563 C 815.820313 318.328125 810.609375 315.710938 806.210938 312.761719 C 798.71875 308.480469 790.769531 304.109375 782.011719 303.480469 C 768.390625 303.429688 753.71875 309.601563 747.101563 322.070313 C 742.039063 331.191406 743.199219 341.960938 743.328125 351.980469 C 743.808594 367.828125 747.941406 384.851563 759.988281 395.988281 C 771.941406 406.699219 788.941406 412.210938 804.828125 408.871094 C 822.449219 405.160156 837.660156 394.050781 849.699219 381.03125 C 853.238281 382.199219 853.46875 386.269531 852.210938 389.269531 C 849.5 395.730469 844.691406 400.96875 840.210938 406.238281 C 829.011719 419.351563 815.300781 430.480469 799.539063 437.640625 C 788.851563 442.808594 776.738281 443.78125 765.03125 443.910156 C 754.039063 443.789063 742.691406 443.128906 732.480469 438.691406 C 721.570313 433.351563 714.800781 422.5 709.871094 411.820313 C 704 398.289063 699.28125 383.949219 698.628906 369.109375 C 697.96875 356.378906 699.339844 343.511719 696.890625 330.921875 C 696.011719 326.890625 694.050781 322.738281 690.261719 320.710938 C 684.398438 317.480469 677.488281 317.378906 670.96875 317.230469 C 667.578125 317 663.988281 317.011719 661 315.210938 C 664.179688 310.878906 668.941406 308.21875 673.460938 305.511719 C 680.320313 301.539063 687.480469 298.121094 694.589844 294.628906 C 699.078125 292.378906 703.96875 290.828125 709.03125 290.71875 C 724.128906 290.921875 739.21875 297.070313 754.28125 293.21875 "/>
<path style=" stroke:none;fill-rule:nonzero;fill:rgb(36.863708%,36.473083%,36.473083%);fill-opacity:1;" d="M 908.070313 333.730469 C 912.769531 338.789063 914.511719 345.691406 916.960938 351.96875 C 924.78125 375.210938 930.828125 399.019531 936.480469 422.871094 C 938.53125 430.390625 937.980469 438.25 938.070313 445.96875 C 937.769531 460.308594 937.460938 474.648438 937.148438 488.988281 C 936.230469 500.300781 936.808594 511.671875 935.820313 522.960938 C 935.558594 555.109375 929.039063 586.859375 929.410156 619.039063 C 929.308594 633.148438 933.5 646.859375 933.660156 660.960938 C 933.800781 673.148438 934.140625 685.550781 931.171875 697.46875 C 930.058594 701.609375 928.359375 706.121094 924.398438 708.332031 C 914.738281 713.859375 903.179688 715.808594 892.191406 714.28125 C 887.128906 713.300781 882.140625 711.148438 878.460938 707.46875 C 875.21875 704.21875 873.761719 699.039063 875.789063 694.769531 C 877.378906 690.878906 881.921875 690.082031 885.230469 688.210938 C 889.929688 685.75 895.199219 682.46875 896.359375 676.871094 C 898.058594 665.308594 897.320313 653.578125 897.261719 641.941406 C 896.589844 635 896.828125 627.960938 895.25 621.140625 C 887 623.230469 878.480469 625.480469 871.378906 630.328125 C 870.75 646.148438 872.820313 662.269531 868.871094 677.800781 C 866.828125 685.859375 862.140625 693.582031 854.828125 697.839844 C 847.21875 702.5 837.808594 702.308594 829.289063 701 C 822.539063 699.78125 815.21875 696.359375 812.679688 689.519531 C 812.011719 687.121094 811.53125 683.660156 814.050781 682.148438 C 818.75 679.300781 824.949219 679.929688 829.28125 676.238281 C 834.878906 671.589844 835.820313 663.800781 836.339844 656.988281 C 836.890625 640.921875 833.671875 625 829.730469 609.5 C 822.539063 581.128906 811.800781 553.839844 803.421875 525.839844 C 801.898438 519.710938 799.5 513.339844 800.878906 506.980469 C 803.359375 499.839844 809.269531 494.71875 814.378906 489.429688 C 836.738281 467.25 859.121094 444.320313 874.53125 416.570313 C 889.140625 390.511719 899.929688 362.429688 908.070313 333.730469 "/>
<path style=" stroke:none;fill-rule:nonzero;fill:rgb(89.451599%,78.125%,83.984375%);fill-opacity:1;" d="M 589.570313 454.589844 C 601.53125 454.53125 613.488281 454.550781 625.449219 454.578125 C 625.511719 460.890625 625.871094 467.210938 625.46875 473.519531 C 613.5 473.558594 601.53125 473.570313 589.558594 473.511719 C 589.210938 467.210938 589.5 460.898438 589.570313 454.589844 "/>
<path style=" stroke:none;fill-rule:nonzero;fill:rgb(89.451599%,78.125%,83.984375%);fill-opacity:1;" d="M 630.851563 454.640625 C 642.96875 454.5 655.101563 454.519531 667.230469 454.628906 C 667.039063 464.960938 668.019531 475.359375 666.910156 485.640625 C 666.570313 483.199219 666.128906 480.789063 665.710938 478.371094 C 654.660156 478.488281 643.601563 478.449219 632.550781 478.398438 C 632.121094 480.058594 631.691406 481.730469 631.351563 483.421875 C 630.808594 481 630.539063 478.539063 630.628906 476.070313 C 630.800781 468.929688 630.671875 461.78125 630.851563 454.640625 "/>
<path style=" stroke:none;fill-rule:nonzero;fill:rgb(84.375%,1.567078%,43.530273%);fill-opacity:1;" d="M 263.671875 463.230469 C 277.199219 463.300781 290.730469 463.070313 304.261719 463.351563 C 304.21875 473.730469 304.238281 484.121094 304.25 494.5 C 315.308594 494.511719 326.378906 494.480469 337.449219 494.519531 C 337.449219 495.089844 337.46875 496.238281 337.480469 496.820313 C 337.558594 501.710938 337.589844 506.601563 337.5 511.488281 C 337.441406 515.25 337.441406 519.011719 337.449219 522.769531 C 331.050781 522.878906 324.648438 522.851563 318.261719 522.800781 C 313.609375 522.761719 308.949219 522.78125 304.308594 522.769531 C 304.179688 537.851563 304.238281 552.929688 304.269531 568.011719 C 304.160156 572.429688 304.941406 577.628906 309.058594 580.128906 C 314.210938 582.988281 320.558594 582.488281 326.011719 580.78125 C 329.179688 579.75 332.429688 578.941406 335.761719 578.578125 C 333.839844 572.601563 332.058594 566.578125 330.128906 560.621094 C 335.058594 560.230469 340 560.140625 344.949219 560.230469 C 351.441406 560.398438 358.039063 559.539063 364.398438 561.21875 C 365.199219 564.660156 366.109375 568.078125 367.019531 571.5 C 368.550781 566.53125 370.25 561.621094 371.71875 556.640625 C 378.351563 554.929688 385.25 555.609375 392.019531 555.511719 C 394.199219 555.328125 396.191406 556.210938 397.980469 557.359375 C 393.03125 573.679688 388.03125 589.980469 383.121094 606.308594 C 370.269531 606.410156 357.410156 606.289063 344.550781 606.371094 C 342.109375 599.070313 339.78125 591.730469 337.710938 584.308594 C 337.148438 591.878906 337.621094 599.488281 337.398438 607.078125 C 323.589844 610.488281 309.160156 611.5 295.039063 609.78125 C 284.230469 608.460938 273.019531 603.5 267.691406 593.480469 C 267.878906 598.441406 267.769531 603.398438 267.789063 608.371094 C 254.390625 608.371094 240.988281 608.390625 227.589844 608.359375 C 227.589844 605.320313 227.578125 602.289063 227.550781 599.261719 C 214.78125 609.769531 197.160156 613.578125 181.070313 610.230469 C 175.148438 609.039063 169.671875 606.261719 164.878906 602.621094 C 149.089844 609.898438 131.359375 612.941406 114.078125 610.761719 C 98.300781 609.300781 82.050781 603.851563 71.050781 591.96875 C 61.390625 581.53125 56.71875 567.078125 57.160156 552.980469 C 56.78125 542.71875 58.351563 532.210938 63.082031 523 C 69.238281 510.300781 80.910156 500.890625 94.128906 496.320313 C 115.730469 488.96875 139.96875 489.878906 161 498.761719 C 162.050781 496.488281 164.78125 496.539063 166.851563 495.980469 C 180.070313 493.511719 193.441406 491.078125 206.949219 491.488281 C 221.058594 491.128906 235.519531 492.460938 248.621094 498.050781 C 248.628906 497.171875 248.648438 495.410156 248.671875 494.53125 C 253.660156 494.480469 258.660156 494.5 263.660156 494.5 C 263.679688 484.078125 263.648438 473.648438 263.671875 463.230469 "/>
<path style=" stroke:none;fill-rule:nonzero;fill:rgb(100%,100%,100%);fill-opacity:1;" d="M 268.25 498.671875 C 268.28125 488.359375 268.148438 478.058594 268.320313 467.75 C 278.671875 467.78125 289.03125 467.75 299.378906 467.769531 C 299.480469 478.21875 299.359375 488.660156 299.441406 499.109375 C 310.691406 499.148438 321.941406 499.050781 333.191406 499.171875 C 333.171875 505.578125 333.191406 512 333.171875 518.421875 C 321.921875 518.429688 310.671875 518.691406 299.429688 518.210938 C 299.421875 534.429688 299.378906 550.660156 299.449219 566.878906 C 299.480469 572.179688 300.078125 578.019531 303.921875 582.050781 C 307.46875 585.890625 312.988281 586.859375 318 586.691406 C 323.070313 586.929688 327.878906 585.179688 332.679688 583.839844 C 332.738281 590.351563 332.71875 596.871094 332.691406 603.398438 C 320.960938 605.929688 308.851563 606.339844 296.921875 605.320313 C 288.398438 604.210938 279.078125 601.46875 273.820313 594.171875 C 268.328125 586.300781 268 576.25 268.238281 567 C 268.25 550.871094 268.25 534.738281 268.238281 518.609375 C 263.078125 518.589844 257.921875 518.640625 252.761719 518.550781 C 252.78125 511.929688 252.75 505.320313 252.789063 498.710938 C 257.941406 498.660156 263.089844 498.691406 268.25 498.671875 "/>
<path style=" stroke:none;fill-rule:nonzero;fill:rgb(91.014099%,49.414063%,69.726563%);fill-opacity:1;" d="M 589.558594 473.511719 C 601.53125 473.570313 613.5 473.558594 625.46875 473.519531 C 625.230469 486.148438 625.699219 498.789063 625.511719 511.421875 C 613.511719 511.628906 601.511719 511.378906 589.511719 511.578125 C 589.351563 498.890625 589.78125 486.199219 589.558594 473.511719 "/>
<path style=" stroke:none;fill-rule:nonzero;fill:rgb(91.014099%,49.414063%,69.726563%);fill-opacity:1;" d="M 631.351563 483.421875 C 631.691406 481.730469 632.121094 480.058594 632.550781 478.398438 C 643.601563 478.449219 654.660156 478.488281 665.710938 478.371094 C 666.128906 480.789063 666.570313 483.199219 666.910156 485.640625 C 667.558594 492.398438 667.140625 499.199219 667.289063 505.980469 C 667.210938 513.828125 667.589844 521.679688 667.160156 529.511719 C 666.519531 523.851563 666.269531 518.140625 665.421875 512.511719 C 654.449219 512.789063 643.398438 511.730469 632.488281 513.160156 C 631.679688 521.609375 631.609375 530.089844 631.300781 538.570313 L 631.230469 539.878906 C 630.039063 531.980469 631 523.949219 630.730469 516 C 630.550781 505.128906 631.03125 494.28125 631.351563 483.421875 "/>
<path style=" stroke:none;fill-rule:nonzero;fill:rgb(91.014099%,49.414063%,69.726563%);fill-opacity:1;" d="M 494.328125 496.5 C 508.730469 494.011719 523.429688 492.839844 538.019531 494.019531 C 547.96875 494.75 558.140625 496.28125 567.101563 500.898438 C 572.191406 503.488281 576.371094 507.589844 579.359375 512.421875 C 576.949219 511.96875 574.53125 511.550781 572.089844 511.480469 C 534.828125 511.488281 497.558594 511.570313 460.300781 511.449219 C 461.269531 506.5 462.679688 501.671875 463.898438 496.78125 C 474.039063 496.550781 484.199219 497.109375 494.328125 496.5 "/>
<path style=" stroke:none;fill-rule:nonzero;fill:rgb(100%,100%,100%);fill-opacity:1;" d="M 92.089844 502.191406 C 114.089844 493.269531 139.628906 494.289063 161.230469 503.941406 C 161.300781 512.71875 161.230469 521.5 161.289063 530.269531 C 158.648438 529.789063 156.75 527.859375 154.71875 526.289063 C 144.179688 518.078125 130.011719 514.410156 116.898438 517.441406 C 109.589844 519.050781 103 523.738281 99.28125 530.261719 C 93.890625 539.078125 93.550781 549.871094 94.570313 559.871094 C 95.78125 569.421875 101.128906 578.828125 110.121094 582.960938 C 123.5 588.941406 139.738281 586.929688 152.011719 579.210938 C 152.671875 586.648438 156.019531 593.660156 161.058594 599.128906 C 142.21875 607.730469 120.480469 608.710938 100.550781 603.628906 C 88.21875 600.421875 76.449219 593.328125 69.589844 582.359375 C 61.191406 569.21875 60.230469 552.648438 62.949219 537.660156 C 65.960938 521.921875 77.238281 508.210938 92.089844 502.191406 "/>
<path style=" stroke:none;fill-rule:nonzero;fill:rgb(100%,100%,100%);fill-opacity:1;" d="M 166.429688 500.789063 C 179.488281 498.371094 192.640625 495.949219 205.980469 496.089844 C 220.410156 495.988281 235.519531 496.738281 248.628906 503.429688 C 248.679688 509.859375 248.648438 516.289063 248.648438 522.71875 C 253.21875 522.800781 257.789063 522.769531 262.359375 522.78125 C 262.878906 525.820313 263.308594 528.890625 263.300781 531.988281 C 263.28125 555.910156 263.289063 579.820313 263.300781 603.738281 C 252.96875 603.839844 242.648438 603.761719 232.320313 603.78125 C 232.320313 599.171875 232.351563 594.550781 232.28125 589.941406 C 224.828125 595.179688 217.820313 601.53125 208.910156 604.171875 C 200.558594 606.738281 191.539063 607.460938 182.929688 605.851563 C 171.910156 603.640625 161.308594 596.210938 157.78125 585.199219 C 154.800781 575.320313 155.75 563.691406 162.339844 555.429688 C 168.660156 547.519531 178.550781 543.671875 188.128906 541.398438 C 202.710938 538.269531 217.671875 537.351563 232.53125 536.488281 C 232.550781 533.011719 232.699219 529.339844 231.101563 526.140625 C 229.351563 522.238281 225.699219 519.539063 221.71875 518.21875 C 213.109375 515.261719 203.839844 515.121094 194.851563 515.621094 C 185.011719 516.601563 175.710938 520.148438 166.378906 523.199219 C 166.378906 515.71875 166.300781 508.25 166.429688 500.789063 "/>
<path style=" stroke:none;fill-rule:nonzero;fill:rgb(100%,100%,100%);fill-opacity:1;" d="M 874.941406 496.808594 C 877.191406 495.359375 879.570313 497.378906 881.019531 499.039063 C 885.910156 504.78125 888.929688 511.789063 892.898438 518.148438 C 896.238281 523.089844 895.488281 529.328125 895.949219 534.980469 C 896.839844 544.308594 895.679688 553.660156 895.75 563 C 895.371094 577.921875 894.328125 592.800781 893.46875 607.691406 C 887.269531 606.660156 881.058594 605.699219 874.808594 605.058594 C 872.46875 604.601563 872.261719 601.929688 872.449219 600.03125 C 872.96875 592.261719 875.410156 584.738281 875.679688 576.949219 C 876.988281 556.230469 867.839844 536.628906 867.769531 516.011719 C 868.191406 509.171875 869.519531 501.550781 874.941406 496.808594 "/>
<path style=" stroke:none;fill-rule:nonzero;fill:rgb(91.014099%,49.414063%,69.726563%);fill-opacity:1;" d="M 337.480469 496.820313 C 340.980469 496.738281 344.46875 496.730469 347.96875 496.78125 C 349.109375 501.429688 350.460938 506.019531 351.460938 510.710938 C 346.839844 511.429688 342.171875 511.660156 337.5 511.488281 C 337.589844 506.601563 337.558594 501.710938 337.480469 496.820313 "/>
<path style=" stroke:none;fill-rule:nonzero;fill:rgb(91.014099%,49.414063%,69.726563%);fill-opacity:1;" d="M 383.628906 519.460938 C 385.53125 511.761719 388.351563 504.320313 390.730469 496.761719 C 401.308594 496.730469 411.898438 496.808594 422.480469 496.710938 C 424.988281 504.238281 427.511719 511.789063 429.371094 519.5 C 428.359375 518.089844 427.289063 516.730469 426.230469 515.371094 C 413.089844 515.351563 399.949219 515.320313 386.820313 515.390625 C 385.730469 516.730469 384.640625 518.058594 383.628906 519.460938 "/>
<path style=" stroke:none;fill-rule:nonzero;fill:rgb(91.014099%,49.414063%,69.726563%);fill-opacity:1;" d="M 705.121094 496.828125 C 719.03125 496.699219 732.941406 496.738281 746.851563 496.808594 C 740.960938 503.761719 735.210938 510.839844 729.191406 517.671875 C 723.429688 513.910156 716.371094 515.699219 709.941406 515.371094 C 703.179688 515.648438 696.230469 514.449219 689.628906 516.378906 C 694.550781 509.679688 700.070313 503.441406 705.121094 496.828125 "/>
<path style=" stroke:none;fill-rule:nonzero;fill:rgb(88.28125%,32.93457%,59.568787%);fill-opacity:1;" d="M 337.5 511.488281 C 342.171875 511.660156 346.839844 511.429688 351.460938 510.710938 C 353.660156 520.089844 356.46875 529.308594 358.601563 538.710938 C 347.738281 538.238281 336.871094 538.449219 326.011719 538.53125 C 325.449219 539.730469 324.898438 540.949219 324.351563 542.171875 C 322.179688 535.75 320.351563 529.230469 318.261719 522.800781 C 324.648438 522.851563 331.050781 522.878906 337.449219 522.769531 C 337.441406 519.011719 337.441406 515.25 337.5 511.488281 "/>
<path style=" stroke:none;fill-rule:nonzero;fill:rgb(88.28125%,32.93457%,59.568787%);fill-opacity:1;" d="M 460.300781 511.449219 C 497.558594 511.570313 534.828125 511.488281 572.089844 511.480469 C 574.53125 511.550781 576.949219 511.96875 579.359375 512.421875 C 582.679688 519.269531 584.179688 526.878906 583.691406 534.488281 C 571.769531 534.640625 559.839844 534.691406 547.929688 534.460938 C 547.71875 531.558594 547.910156 528.410156 546.191406 525.898438 C 543.75 521.980469 539.078125 520.328125 534.808594 519.300781 C 520.828125 516.269531 505.808594 517.578125 492.730469 523.378906 C 489.941406 530.25 488.390625 537.570313 485.859375 544.539063 C 475.128906 543.738281 464.371094 544.320313 453.621094 544.121094 C 452.851563 545.171875 452.089844 546.230469 451.359375 547.308594 C 453.890625 535.25 457.429688 523.429688 460.300781 511.449219 "/>
<path style=" stroke:none;fill-rule:nonzero;fill:rgb(88.28125%,32.93457%,59.568787%);fill-opacity:1;" d="M 589.511719 511.578125 C 601.511719 511.378906 613.511719 511.628906 625.511719 511.421875 C 625.390625 520.449219 625.640625 529.480469 625.53125 538.511719 C 613.519531 538.859375 601.378906 537.410156 589.488281 539.449219 C 589.398438 530.160156 589.628906 520.859375 589.511719 511.578125 "/>
<path style=" stroke:none;fill-rule:nonzero;fill:rgb(88.28125%,32.93457%,59.568787%);fill-opacity:1;" d="M 632.488281 513.160156 C 643.398438 511.730469 654.449219 512.789063 665.421875 512.511719 C 666.269531 518.140625 666.519531 523.851563 667.160156 529.511719 C 667.410156 534.328125 667.390625 539.171875 667.261719 543.988281 L 666.859375 544.480469 C 666.210938 542.488281 665.578125 540.511719 664.949219 538.519531 C 653.730469 538.398438 642.511719 538.390625 631.300781 538.570313 C 631.609375 530.089844 631.679688 521.609375 632.488281 513.160156 "/>
<path style=" stroke:none;fill-rule:nonzero;fill:rgb(88.28125%,32.93457%,59.568787%);fill-opacity:1;" d="M 383.628906 519.460938 C 384.640625 518.058594 385.730469 516.730469 386.820313 515.390625 C 399.949219 515.320313 413.089844 515.351563 426.230469 515.371094 C 427.289063 516.730469 428.359375 518.089844 429.371094 519.5 C 431.859375 526.941406 434.121094 534.46875 436.238281 542.03125 C 434.800781 540.539063 433.359375 538.519531 431.058594 538.558594 C 423.160156 538.171875 415.238281 538.539063 407.339844 538.558594 L 407.101563 538.558594 C 406.480469 536.738281 405.839844 534.929688 405.210938 533.128906 C 404.5 536.101563 403.679688 539.039063 402.679688 541.929688 C 402.140625 540.800781 401.609375 539.671875 401.078125 538.550781 C 393.191406 538.371094 385.28125 538.269531 377.398438 538.769531 C 379.398438 532.308594 381.320313 525.808594 383.628906 519.460938 "/>
<path style=" stroke:none;fill-rule:nonzero;fill:rgb(88.28125%,32.93457%,59.568787%);fill-opacity:1;" d="M 689.628906 516.378906 C 696.230469 514.449219 703.179688 515.648438 709.941406 515.371094 C 716.371094 515.699219 723.429688 513.910156 729.191406 517.671875 C 723.691406 523.878906 718.421875 530.300781 713.101563 536.660156 L 712.910156 536.648438 C 699.800781 536.328125 686.679688 536.589844 673.570313 536.488281 C 678.828125 529.71875 684.289063 523.101563 689.628906 516.378906 "/>
<path style=" stroke:none;fill-rule:nonzero;fill:rgb(100%,100%,100%);fill-opacity:1;" d="M 492.730469 523.378906 C 505.808594 517.578125 520.828125 516.269531 534.808594 519.300781 C 539.078125 520.328125 543.75 521.980469 546.191406 525.898438 C 547.910156 528.410156 547.71875 531.558594 547.929688 534.460938 C 540.320313 534.359375 532.769531 535.398438 525.21875 536.070313 C 511.28125 537.488281 496.78125 539.640625 484.859375 547.539063 C 485.109375 546.789063 485.609375 545.289063 485.859375 544.539063 C 488.390625 537.570313 489.941406 530.25 492.730469 523.378906 "/>
<path style=" stroke:none;fill-rule:nonzero;fill:rgb(100%,100%,100%);fill-opacity:1;" d="M 166.070313 527.898438 C 176.390625 525.429688 186.238281 520.609375 197.011719 520.199219 C 205.359375 520.019531 214.121094 519.941406 221.898438 523.410156 C 225.421875 524.890625 227.558594 528.410156 227.878906 532.148438 C 213.140625 533.078125 198.238281 533.960938 183.890625 537.648438 C 173.410156 540.390625 162.910156 545.609375 156.851563 554.949219 C 153.101563 560.539063 152.238281 567.328125 151.441406 573.851563 C 141.699219 581.101563 128.679688 583.351563 116.960938 580.488281 C 109.421875 578.691406 103.109375 572.828125 100.710938 565.460938 C 97.800781 556.339844 97.917969 546.210938 101.128906 537.171875 C 103.738281 529.808594 110.019531 523.820313 117.699219 522.050781 C 126.148438 520.289063 135.261719 520.988281 143.078125 524.800781 C 148.488281 527.109375 153.050781 530.871094 157.511719 534.621094 C 160.261719 534.640625 163.011719 534.640625 165.761719 534.648438 C 165.808594 532.390625 165.890625 530.140625 166.070313 527.898438 "/>
<path style=" stroke:none;fill-rule:nonzero;fill:rgb(100%,100%,100%);fill-opacity:1;" d="M 304.308594 522.769531 C 308.949219 522.78125 313.609375 522.761719 318.261719 522.800781 C 320.351563 529.230469 322.179688 535.75 324.351563 542.171875 C 326.359375 548.289063 328.089844 554.5 330.128906 560.621094 C 332.058594 566.578125 333.839844 572.601563 335.761719 578.578125 C 332.429688 578.941406 329.179688 579.75 326.011719 580.78125 C 320.558594 582.488281 314.210938 582.988281 309.058594 580.128906 C 304.941406 577.628906 304.160156 572.429688 304.269531 568.011719 C 304.238281 552.929688 304.179688 537.851563 304.308594 522.769531 "/>
<path style=" stroke:none;fill-rule:nonzero;fill:rgb(86.326599%,17.259216%,51.756287%);fill-opacity:1;" d="M 547.929688 534.460938 C 559.839844 534.691406 571.769531 534.640625 583.691406 534.488281 C 583.539063 541.480469 583.808594 548.480469 583.679688 555.46875 C 572.308594 555.691406 560.941406 555.460938 549.570313 555.578125 C 548.308594 562.769531 549.210938 570.148438 547.71875 577.300781 C 547.738281 569.898438 547.730469 562.488281 547.738281 555.089844 C 538.148438 555.820313 528.5 556.621094 519.148438 558.960938 C 512.660156 556.640625 505.71875 557.601563 498.980469 557.480469 C 485.300781 557.441406 471.609375 557.550781 457.929688 557.398438 C 454.648438 557.308594 451.441406 558.019531 448.308594 558.929688 C 449.421875 555.078125 450.019531 551.078125 451.359375 547.308594 C 452.089844 546.230469 452.851563 545.171875 453.621094 544.121094 C 464.371094 544.320313 475.128906 543.738281 485.859375 544.539063 C 485.609375 545.289063 485.109375 546.789063 484.859375 547.539063 C 496.78125 539.640625 511.28125 537.488281 525.21875 536.070313 C 532.769531 535.398438 540.320313 534.359375 547.929688 534.460938 "/>
<path style=" stroke:none;fill-rule:nonzero;fill:rgb(86.326599%,17.259216%,51.756287%);fill-opacity:1;" d="M 667.261719 543.988281 C 669.511719 541.621094 671.671875 539.148438 673.570313 536.488281 C 686.679688 536.589844 699.800781 536.328125 712.910156 536.648438 C 711.140625 539.140625 708.25 541.089844 707.25 543.988281 C 709.308594 548.5 712.941406 552.171875 715.460938 556.46875 C 707.019531 557.460938 698.46875 558.011719 690.011719 557 C 685.839844 556.460938 681.621094 556.441406 677.441406 556.820313 C 677.640625 558.039063 677.871094 559.269531 678.121094 560.5 C 677.640625 560.140625 676.671875 559.421875 676.191406 559.058594 C 672 555.308594 666.070313 556.710938 660.980469 556.519531 C 651.101563 556.929688 641.109375 555.609375 631.351563 557.558594 L 630.710938 557.671875 C 630.738281 551.730469 630.730469 545.789063 631.230469 539.878906 L 631.300781 538.570313 C 642.511719 538.390625 653.730469 538.398438 664.949219 538.519531 C 665.578125 540.511719 666.210938 542.488281 666.859375 544.480469 L 667.261719 543.988281 "/>
<path style=" stroke:none;fill-rule:nonzero;fill:rgb(86.326599%,17.259216%,51.756287%);fill-opacity:1;" d="M 324.351563 542.171875 C 324.898438 540.949219 325.449219 539.730469 326.011719 538.53125 C 336.871094 538.449219 347.738281 538.238281 358.601563 538.710938 C 360.488281 546.21875 362.53125 553.699219 364.398438 561.21875 C 358.039063 559.539063 351.441406 560.398438 344.949219 560.230469 C 340 560.140625 335.058594 560.230469 330.128906 560.621094 C 328.089844 554.5 326.359375 548.289063 324.351563 542.171875 "/>
<path style=" stroke:none;fill-rule:nonzero;fill:rgb(86.326599%,17.259216%,51.756287%);fill-opacity:1;" d="M 377.398438 538.769531 C 385.28125 538.269531 393.191406 538.371094 401.078125 538.550781 C 401.609375 539.671875 402.140625 540.800781 402.679688 541.929688 C 401.039063 547.050781 399.621094 552.238281 397.980469 557.359375 C 396.191406 556.210938 394.199219 555.328125 392.019531 555.511719 C 385.25 555.609375 378.351563 554.929688 371.71875 556.640625 C 373.578125 550.671875 375.550781 544.738281 377.398438 538.769531 "/>
<path style=" stroke:none;fill-rule:nonzero;fill:rgb(86.326599%,17.259216%,51.756287%);fill-opacity:1;" d="M 407.339844 538.558594 C 415.238281 538.539063 423.160156 538.171875 431.058594 538.558594 C 433.359375 538.519531 434.800781 540.539063 436.238281 542.03125 C 437.878906 548.03125 440.429688 553.871094 441.269531 560.03125 L 440.941406 560.5 C 432.011719 560.058594 423.050781 560.058594 414.121094 560.570313 L 413.800781 560.589844 C 411.851563 553.179688 409.320313 545.949219 407.339844 538.558594 "/>
<path style=" stroke:none;fill-rule:nonzero;fill:rgb(86.326599%,17.259216%,51.756287%);fill-opacity:1;" d="M 589.488281 539.449219 C 601.378906 537.410156 613.519531 538.859375 625.53125 538.511719 C 625.449219 543.851563 625.578125 549.199219 625.511719 554.550781 C 613.511719 554.789063 601.511719 554.539063 589.519531 554.710938 C 589.449219 549.621094 589.570313 544.53125 589.488281 539.449219 "/>
<path style=" stroke:none;fill-rule:nonzero;fill:rgb(84.375%,1.567078%,43.530273%);fill-opacity:1;" d="M 207.910156 554.949219 C 216.011719 553.78125 224.140625 552.761719 232.320313 552.359375 C 232.238281 561.019531 232.488281 569.691406 232.21875 578.339844 C 230.328125 581.101563 226.921875 582.511719 224.03125 584.101563 C 216.761719 587.851563 208.289063 588.101563 200.351563 586.941406 C 195.171875 585.878906 189.570313 582.488281 188.550781 576.910156 C 188.019531 572.199219 187.691406 566.820313 190.859375 562.890625 C 194.871094 557.628906 201.710938 555.949219 207.910156 554.949219 "/>
<path style=" stroke:none;fill-rule:nonzero;fill:rgb(84.375%,1.567078%,43.530273%);fill-opacity:1;" d="M 589.519531 554.710938 C 601.511719 554.539063 613.511719 554.789063 625.511719 554.550781 C 625.519531 571.808594 625.589844 589.078125 625.53125 606.351563 C 613.511719 606.339844 601.488281 606.359375 589.480469 606.339844 C 589.410156 589.128906 589.5 571.921875 589.519531 554.710938 "/>
<path style=" stroke:none;fill-rule:nonzero;fill:rgb(100%,100%,100%);fill-opacity:1;" d="M 519.148438 558.960938 C 528.5 556.621094 538.148438 555.820313 547.738281 555.089844 C 547.730469 562.488281 547.738281 569.898438 547.71875 577.300781 C 542.460938 582.230469 535.078125 584.671875 527.980469 585.148438 C 522.671875 585.21875 516.808594 584.960938 512.460938 581.550781 C 508.269531 578.578125 507.949219 572.640625 509.101563 568.070313 C 510.238281 563.269531 514.789063 560.46875 519.148438 558.960938 "/>
<path style=" stroke:none;fill-rule:nonzero;fill:rgb(84.375%,1.567078%,43.530273%);fill-opacity:1;" d="M 549.570313 555.578125 C 560.941406 555.460938 572.308594 555.691406 583.679688 555.46875 C 583.699219 572.429688 583.808594 589.378906 583.738281 606.339844 C 571.738281 606.339844 559.75 606.378906 547.75 606.320313 C 547.761719 602.550781 547.769531 598.78125 547.648438 595.019531 C 540.929688 600.140625 533.890625 605.261719 525.511719 607.238281 C 512.878906 610.390625 498.410156 610.371094 487.199219 602.960938 C 480.429688 598.78125 475.578125 592.058594 473.058594 584.589844 C 471 591.898438 468.558594 599.101563 466.28125 606.351563 C 453.53125 606.320313 440.78125 606.390625 428.03125 606.308594 C 423.449219 591.050781 418.460938 575.898438 414.121094 560.570313 C 423.050781 560.058594 432.011719 560.058594 440.941406 560.5 L 441.710938 560.75 C 443.359375 564.058594 443.808594 567.949219 445.050781 571.46875 C 446.300781 567.328125 447.351563 563.128906 448.308594 558.929688 C 451.441406 558.019531 454.648438 557.308594 457.929688 557.398438 C 471.609375 557.550781 485.300781 557.441406 498.980469 557.480469 C 505.71875 557.601563 512.660156 556.640625 519.148438 558.960938 C 514.789063 560.46875 510.238281 563.269531 509.101563 568.070313 C 507.949219 572.640625 508.269531 578.578125 512.460938 581.550781 C 516.808594 584.960938 522.671875 585.21875 527.980469 585.148438 C 535.078125 584.671875 542.460938 582.230469 547.71875 577.300781 C 549.210938 570.148438 548.308594 562.769531 549.570313 555.578125 "/>
<path style=" stroke:none;fill-rule:nonzero;fill:rgb(100%,100%,100%);fill-opacity:1;" d="M 198.578125 562.480469 C 207.671875 558.46875 217.878906 558.601563 227.589844 557.351563 C 227.578125 563.761719 227.609375 570.179688 227.570313 576.601563 C 222.371094 580.078125 216.378906 582.921875 209.988281 582.78125 C 205.929688 582.730469 201.589844 583.121094 197.859375 581.179688 C 190.25 578 191.300781 565.480469 198.578125 562.480469 "/>
<path style=" stroke:none;fill-rule:nonzero;fill:rgb(84.375%,1.567078%,43.530273%);fill-opacity:1;" d="M 631.351563 557.558594 C 641.109375 555.609375 651.101563 556.929688 660.980469 556.519531 C 666.070313 556.710938 672 555.308594 676.191406 559.058594 C 673.511719 562.96875 670.039063 566.269531 667.429688 570.210938 C 667.109375 582.230469 667.410156 594.28125 667.300781 606.308594 C 655.371094 606.328125 643.449219 606.429688 631.53125 606.28125 C 631.351563 606.070313 631 605.648438 630.820313 605.441406 C 630.621094 596.289063 630.820313 587.140625 630.75 577.988281 C 630.851563 571.171875 630.429688 564.328125 631.351563 557.558594 "/>
<path style=" stroke:none;fill-rule:nonzero;fill:rgb(84.375%,1.567078%,43.530273%);fill-opacity:1;" d="M 677.441406 556.820313 C 681.621094 556.441406 685.839844 556.460938 690.011719 557 C 698.46875 558.011719 707.019531 557.460938 715.460938 556.46875 C 726.949219 573.070313 738.539063 589.601563 749.910156 606.28125 C 735.898438 606.421875 721.898438 606.328125 707.890625 606.328125 C 698.96875 592.839844 690.101563 579.308594 681.210938 565.800781 C 680.128906 564.058594 678.730469 562.460938 678.121094 560.5 C 677.871094 559.269531 677.640625 558.039063 677.441406 556.820313 "/>
<path style=" stroke:none;fill-rule:nonzero;fill:rgb(36.863708%,36.473083%,36.473083%);fill-opacity:1;" d="M 430.140625 623.199219 C 433.761719 620.628906 438.398438 621.230469 442.589844 621.179688 C 442.601563 621.808594 442.609375 623.070313 442.609375 623.710938 C 438.511719 623.730469 433.558594 623.070313 430.539063 626.511719 C 427.851563 629.300781 428.609375 633.390625 428.5 636.898438 C 433.199219 636.898438 437.890625 636.851563 442.589844 636.988281 C 442.589844 637.640625 442.601563 638.941406 442.601563 639.601563 C 437.910156 639.589844 433.230469 639.589844 428.539063 639.589844 C 428.5 650.269531 428.53125 660.949219 428.519531 671.628906 C 427.558594 671.621094 426.601563 671.621094 425.648438 671.640625 C 425.660156 658.421875 425.640625 645.210938 425.648438 632 C 425.550781 628.558594 427.140625 625.011719 430.140625 623.199219 "/>
<path style=" stroke:none;fill-rule:nonzero;fill:rgb(36.863708%,36.473083%,36.473083%);fill-opacity:1;" d="M 572.578125 621.171875 C 573.300781 621.179688 574.730469 621.21875 575.449219 621.238281 C 575.429688 627.96875 575.460938 634.710938 575.441406 641.449219 C 579.71875 635.78125 588.53125 634.421875 594.171875 638.828125 C 597.71875 641.371094 599.660156 645.71875 599.671875 650.039063 C 599.75 657.25 599.679688 664.46875 599.679688 671.699219 C 598.691406 671.628906 597.710938 671.578125 596.738281 671.53125 C 596.699219 664.058594 596.859375 656.578125 596.691406 649.109375 C 596.511719 643.261719 590.871094 638.089844 584.980469 638.828125 C 579.640625 639.539063 575.449219 644.570313 575.480469 649.921875 C 575.359375 657.140625 575.488281 664.371094 575.449219 671.609375 C 574.730469 671.621094 573.289063 671.640625 572.570313 671.648438 C 572.570313 654.820313 572.558594 637.988281 572.578125 621.171875 "/>
<path style=" stroke:none;fill-rule:nonzero;fill:rgb(36.863708%,36.473083%,36.473083%);fill-opacity:1;" d="M 629.621094 625.488281 C 631.121094 625.578125 633.859375 625.929688 633.398438 628.101563 C 633.839844 630.371094 630.609375 629.449219 629.308594 629.839844 C 629.378906 628.378906 629.480469 626.929688 629.621094 625.488281 "/>
<path style=" stroke:none;fill-rule:nonzero;fill:rgb(36.863708%,36.473083%,36.473083%);fill-opacity:1;" d="M 469.230469 639.21875 C 475.019531 635 483.648438 635.238281 489.101563 639.941406 C 493.269531 643.289063 495.511719 648.628906 495.539063 653.921875 C 495.648438 659.820313 495.53125 665.71875 495.578125 671.621094 C 494.859375 671.628906 493.429688 671.648438 492.710938 671.648438 C 492.621094 665.410156 492.839844 659.171875 492.628906 652.929688 C 492.320313 645.398438 485.671875 638.21875 477.871094 638.789063 C 469.398438 639.78125 463.398438 648.800781 465.070313 657.011719 C 466.101563 664.039063 472.589844 670.488281 479.980469 669.699219 C 483.738281 669.601563 486.878906 667.28125 489.511719 664.808594 C 489.519531 665.929688 489.53125 667.058594 489.550781 668.199219 C 486.441406 670.351563 483.019531 672.578125 479.078125 672.46875 C 472.148438 672.738281 465.660156 668.011719 463.308594 661.578125 C 460.550781 653.929688 462.328125 644.109375 469.230469 639.21875 "/>
<path style=" stroke:none;fill-rule:nonzero;fill:rgb(36.863708%,36.473083%,36.473083%);fill-opacity:1;" d="M 673.390625 636.640625 C 678.910156 635.351563 684.960938 637.050781 689 641.019531 C 694.980469 646.839844 696.210938 656.75 691.910156 663.890625 C 687.78125 671.25 677.800781 674.769531 670.160156 670.859375 C 661.410156 666.988281 657.808594 655.75 661.378906 647.148438 C 663.429688 642.011719 667.988281 637.910156 673.390625 636.640625 "/>
<path style=" stroke:none;fill-rule:nonzero;fill:rgb(36.863708%,36.473083%,36.473083%);fill-opacity:1;" d="M 725.261719 639.230469 C 730.230469 634.96875 738.449219 635.230469 743.089844 639.890625 C 746.140625 642.679688 747.480469 646.941406 747.421875 651 C 747.421875 657.878906 747.390625 664.761719 747.410156 671.640625 C 746.441406 671.628906 745.480469 671.621094 744.53125 671.621094 C 744.488281 664.410156 744.621094 657.210938 744.5 650.011719 C 744.488281 644.988281 740.910156 640.109375 735.949219 639.039063 C 729.820313 637.480469 723.429688 642.929688 723.28125 649.101563 C 723.109375 656.570313 723.269531 664.050781 723.230469 671.53125 C 722.25 671.578125 721.269531 671.628906 720.300781 671.699219 C 720.289063 664.480469 720.230469 657.261719 720.300781 650.050781 C 720.289063 645.949219 722.050781 641.828125 725.261719 639.230469 "/>
<path style=" stroke:none;fill-rule:nonzero;fill:rgb(36.863708%,36.473083%,36.473083%);fill-opacity:1;" d="M 527.191406 637.378906 C 533.179688 636.480469 539.300781 636.851563 545.328125 637.230469 C 545.300781 637.800781 545.238281 638.960938 545.210938 639.539063 C 539.800781 639.75 534.378906 639.351563 528.980469 639.730469 C 524.410156 640.269531 522.648438 647.03125 526.460938 649.660156 C 532.089844 653.5 539.910156 652.28125 545.210938 656.820313 C 547.898438 659.078125 548.199219 663.039063 547.230469 666.210938 C 545.820313 669.511719 542.289063 671.308594 538.839844 671.5 C 533.019531 671.851563 527.191406 671.550781 521.378906 671.640625 C 521.371094 671.050781 521.371094 669.859375 521.359375 669.269531 C 528 668.53125 534.839844 670.171875 541.328125 668.261719 C 545.519531 667.058594 545.75 660.808594 542.449219 658.5 C 536.820313 654.601563 529.058594 655.648438 523.679688 651.25 C 519.359375 647.261719 521.269531 638.660156 527.191406 637.378906 "/>
<path style=" stroke:none;fill-rule:nonzero;fill:rgb(36.863708%,36.473083%,36.473083%);fill-opacity:1;" d="M 629.828125 636.910156 C 630.53125 636.898438 631.929688 636.898438 632.628906 636.898438 C 632.710938 648.480469 632.648438 660.070313 632.660156 671.648438 C 631.699219 671.640625 630.761719 671.628906 629.808594 671.628906 C 629.820313 660.050781 629.800781 648.480469 629.828125 636.910156 "/>
<path style=" stroke:none;fill-rule:nonzero;fill:rgb(100%,100%,100%);fill-opacity:1;" d="M 675.71875 638.851563 C 683.460938 637.929688 690.558594 644.449219 691.449219 651.980469 C 692.960938 660.519531 686.078125 670.269531 676.96875 669.730469 C 667.71875 669.878906 660.980469 659.53125 663.191406 650.949219 C 664.359375 644.851563 669.488281 639.660156 675.71875 638.851563 "/>
</g>
</svg>
